<svg width="200" height="200" viewBox="0 0 200 200" xmlns="http://www.w3.org/2000/svg">
  <!-- Cruelty Free (Bunny) vector logo -->
  <path d="M40 130 C30 110 50 90 70 80 C80 60 100 50 120 60 C140 70 150 90 140 110 C160 110 170 130 150 150 C130 170 110 160 100 150 C80 160 60 150 40 130 Z" fill="none" stroke="#000000" stroke-width="4" stroke-linejoin="round"/>
  <path d="M60 80 Q70 60 90 70 Q110 80 120 100" fill="none" stroke="#000000" stroke-width="4" stroke-linecap="round"/>
  <circle cx="85" cy="85" r="4" fill="#000000"/>
  <!-- Stars -->
  <polygon points="50,40 54,54 68,54 56,62 60,76 48,66 36,76 40,62 28,54 42,54" fill="#0A3B8C"/>
  <polygon points="160,70 162,78 170,78 163,83 166,91 159,86 152,91 155,83 148,78 156,78" fill="#0A3B8C"/>
  <path d="M40 160 Q100 190 160 140" fill="none" stroke="#0A3B8C" stroke-width="6" stroke-linecap="round"/>
</svg>
