<svg width="120" height="120" viewBox="0 0 120 120" xmlns="http://www.w3.org/2000/svg">
  <circle cx="60" cy="60" r="56" fill="#F0F4EE" stroke="#4A6B3E" stroke-width="3"/>
  <!-- Clean wheat stalk -->
  <line x1="60" y1="26" x2="60" y2="78" stroke="#4A6B3E" stroke-width="3" stroke-linecap="round"/>
  <!-- Wheat grains - left -->
  <ellipse cx="48" cy="38" rx="9" ry="13" fill="#4A6B3E" opacity="0.25" transform="rotate(-25 48 38)"/>
  <ellipse cx="48" cy="38" rx="9" ry="13" fill="none" stroke="#4A6B3E" stroke-width="2" transform="rotate(-25 48 38)"/>
  <ellipse cx="46" cy="54" rx="9" ry="13" fill="#4A6B3E" opacity="0.25" transform="rotate(-20 46 54)"/>
  <ellipse cx="46" cy="54" rx="9" ry="13" fill="none" stroke="#4A6B3E" stroke-width="2" transform="rotate(-20 46 54)"/>
  <!-- Wheat grains - right -->
  <ellipse cx="72" cy="38" rx="9" ry="13" fill="#4A6B3E" opacity="0.25" transform="rotate(25 72 38)"/>
  <ellipse cx="72" cy="38" rx="9" ry="13" fill="none" stroke="#4A6B3E" stroke-width="2" transform="rotate(25 72 38)"/>
  <ellipse cx="74" cy="54" rx="9" ry="13" fill="#4A6B3E" opacity="0.25" transform="rotate(20 74 54)"/>
  <ellipse cx="74" cy="54" rx="9" ry="13" fill="none" stroke="#4A6B3E" stroke-width="2" transform="rotate(20 74 54)"/>
  <text x="60" y="96" font-family="Arial, sans-serif" font-weight="700" font-size="9.5" fill="#4A6B3E" text-anchor="middle" letter-spacing="0.5">GLUTEN FREE</text>
</svg>
